# 3ds Max Wavefront OBJ Exporter v0.97b - (c)2007 guruware
# 创建的文件:03.12.2018 21:50:54

mtllib cornell.mtl

#
# object cornell_box
#

v  -39.7237 -32.1151 37.0260
v  38.3383 -32.1151 37.4726
v  38.3383 -32.1151 -39.6960
v  -39.7237 -32.1151 -39.6960
v  29.2646 -32.1151 -21.5485
v  22.4244 -32.1151 0.7868
v  0.3682 -32.1151 -6.1930
v  6.9292 -32.1151 -28.2491
v  -2.9821 -32.1151 -2.7031
v  3.8581 -32.1151 19.3531
v  -18.3376 -32.1151 26.1933
v  -25.3174 -32.1151 4.1372
v  6.6500 44.3834 -9.9620
v  6.6500 44.3834 8.1854
v  -8.0075 44.3834 8.1854
v  -8.0075 44.3834 -9.9620
v  38.3383 44.4951 -39.6960
v  38.3383 44.4951 37.9194
v  -39.7237 44.4951 37.9194
v  -39.7237 44.4951 -39.6960
v  0.3682 -9.0818 -6.1930
v  22.4244 -9.0818 0.7868
v  29.2646 -9.0818 -21.5485
v  6.9292 -9.0818 -28.2491
v  -18.3376 13.9462 26.1933
v  3.8581 13.9487 19.3531
v  -2.9821 13.9568 -2.7031
v  -25.3174 13.9543 4.1372
v  3.8581 13.9515 19.3531
v  -18.3376 13.9515 26.1933
v  -25.3174 13.9515 4.1372
v  -2.9821 13.9515 -2.7031
# 32 vertices

vn 0.0000 1.0000 0.0000
vn -0.0000 -1.0000 -0.0000
vn 1.0000 0.0000 -0.0000
vn 0.0000 -0.0000 1.0000
vn 0.0029 0.0087 -1.0000
vn 0.0057 0.0058 -1.0000
vn 0.0028 0.0088 -1.0000
vn -0.0000 0.0117 -0.9999
vn -0.3017 -0.0000 0.9534
vn 0.9562 -0.0000 0.2928
vn 0.2873 0.0000 -0.9578
vn -0.9585 0.0000 -0.2851
vn 0.0000 1.0000 0.0004
vn 0.2945 -0.0000 0.9556
vn -0.9534 -0.0000 0.3017
vn -0.2928 0.0000 -0.9562
vn 0.9551 0.0000 -0.2962
# 17 vertex normals

g cornell_box
usemtl _cornell_boxwhite
s 1
f 1//1 2//1 3//1 4//1 
f 5//2 6//2 7//2 8//2 
f 9//2 10//2 11//2 12//2 
usemtl _cornell_boxlight
f 13//2 14//2 15//2 16//2 
usemtl _cornell_boxwhite
f 17//2 18//2 19//2 20//2 
f 20//3 19//3 1//3 4//3 
usemtl _cornell_boxgreen
f 20//4 4//4 3//4 17//4 
usemtl _cornell_boxred
f 18//5 2//6 1//7 19//8 
usemtl _cornell_boxwhite
f 21//1 22//1 23//1 24//1 
f 7//9 6//9 22//9 21//9 
f 6//10 5//10 23//10 22//10 
f 5//11 8//11 24//11 23//11 
f 8//12 7//12 21//12 24//12 
f 25//13 26//13 27//13 28//13 
f 11//14 10//14 29//14 30//14 
f 12//15 11//15 30//15 31//15 
f 9//16 12//16 31//16 32//16 
f 10//17 9//17 32//17 29//17 
# 18 polygons

